# xmcd
#
# Track frame offsets:
#       150
#       20516
#       46187
#       78680
#       93200
#       103208
#       125775
#       148160
#       171403
#       193883
#       218392
#       240325
#       253019
#       268710
#       272175
#       299609
#
# Disc length: 4299 seconds
#
# Revision: 0
# Processed by: cddbd v1.5.2PL0 Copyright (c) Steve Scherf et al.
# Submitted via: CD-DA_X-Tractor v0.24
#
DISCID=f710c910
DTITLE=Trio Lepschi - z tod gfiacht
DYEAR=2011
DGENRE=wienerlied
TTITLE0=Wia Kauma Nua
TTITLE1=I Friss
TTITLE2=Z Tod Gfiacht
TTITLE3=Hoibweatszeitn
TTITLE4=Ka Netsch
TTITLE5=Des Bankl
TTITLE6=Es Is Hoid So
TTITLE7=Hob Mi Gean
TTITLE8=Kuidua
TTITLE9=Mei Bluza
TTITLE10=Des Oidwean
TTITLE11=Text Vagessn
TTITLE12=So Vüü Joa
TTITLE13=Mutterstolz
TTITLE14=Lukrezia
TTITLE15=Liebe Grüsse
EXTD=
EXTT0=
EXTT1=
EXTT2=
EXTT3=
EXTT4=
EXTT5=
EXTT6=
EXTT7=
EXTT8=
EXTT9=
EXTT10=
EXTT11=
EXTT12=
EXTT13=
EXTT14=
EXTT15=
PLAYORDER=
